<svg width="22" height="22" viewBox="0 0 22 22" fill="none" xmlns="http://www.w3.org/2000/svg">
<g clip-path="url(#clip0_28_113)">
<path fill-rule="evenodd" clip-rule="evenodd" d="M21.3536 0.646431C21.5488 0.841693 21.5488 1.15828 21.3536 1.35354L13.4454 9.26173C13.2508 8.98847 13.0115 8.74921 12.7383 8.55462L20.6464 0.646431C20.8417 0.451169 21.1583 0.451169 21.3536 0.646431ZM8.04148 10.5H1C0.723858 10.5 0.5 10.7238 0.5 11C0.5 11.2761 0.723858 11.5 1 11.5H8.04147C8.01419 11.3374 7.99999 11.1703 7.99999 11C7.99999 10.8296 8.01419 10.6626 8.04148 10.5ZM8.55462 12.7383L0.646447 20.6464C0.451184 20.8417 0.451184 21.1583 0.646447 21.3535C0.841709 21.5488 1.15829 21.5488 1.35355 21.3535L9.26172 13.4454C8.98846 13.2508 8.74921 13.0115 8.55462 12.7383ZM13.9585 11.5H21C21.2761 11.5 21.5 11.2761 21.5 11C21.5 10.7238 21.2761 10.5 21 10.5H13.9585C13.9858 10.6626 14 10.8296 14 11C14 11.1703 13.9858 11.3374 13.9585 11.5Z" fill="white"/>
<rect x="7.5" y="7.5" width="7" height="7" rx="3.5" stroke="white"/>
</g>
<defs>
<clipPath id="clip0_28_113">
<rect width="22" height="22" fill="white"/>
</clipPath>
</defs>
</svg>
