<svg width="21" height="21" viewBox="0 0 21 21" fill="none" xmlns="http://www.w3.org/2000/svg">
<path fill-rule="evenodd" clip-rule="evenodd" d="M19.8536 1.14645C20.0488 1.34171 20.0488 1.65829 19.8536 1.85355L12.5858 9.12131C12.4 8.84081 12.1592 8.59997 11.8787 8.4142L19.1464 1.14645C19.3417 0.951184 19.6583 0.951184 19.8536 1.14645ZM8.05001 9.99998H0.5C0.223858 9.99998 0 10.2238 0 10.5C0 10.7761 0.223858 11 0.5 11H8.05001C8.01721 10.8384 8 10.6712 8 10.5C8 10.3288 8.01722 10.1615 8.05001 9.99998ZM8.4142 11.8787L1.14645 19.1464C0.951184 19.3417 0.951184 19.6583 1.14645 19.8536C1.34171 20.0488 1.65829 20.0488 1.85355 19.8536L9.12131 12.5858C8.84081 12.4 8.59997 12.1592 8.4142 11.8787ZM12.95 11H20.5C20.7761 11 21 10.7761 21 10.5C21 10.2238 20.7761 9.99998 20.5 9.99998H12.95C12.9828 10.1615 13 10.3288 13 10.5C13 10.6712 12.9828 10.8384 12.95 11Z" fill="white"/>
<rect x="7.5" y="7.5" width="6" height="6" rx="3" stroke="white"/>
</svg>
