<svg width="18" height="18" viewBox="0 0 18 18" fill="none" xmlns="http://www.w3.org/2000/svg">
<g clip-path="url(#clip0_136_34)">
<rect x="6" y="5" width="5" height="2" fill="white"/>
<rect x="5" y="5" width="2" height="6" fill="white"/>
<rect x="8" y="11" width="5" height="2" fill="white"/>
<rect x="11" y="8" width="2" height="5" fill="white"/>
<rect x="11" y="5" width="7" height="1" fill="white"/>
<rect x="17" y="5" width="1" height="13" fill="white"/>
<rect x="6" y="17" width="12" height="1" fill="white"/>
<rect x="5" y="11" width="1" height="7" fill="white"/>
<rect y="12" width="7" height="1" fill="white"/>
<rect width="1" height="13" fill="white"/>
<rect width="12" height="1" fill="white"/>
<rect x="12" width="1" height="7" fill="white"/>
<rect x="5" y="5" width="6" height="2" fill="white"/>
<rect x="5" y="6" width="2" height="5" fill="white"/>
<rect x="6" y="11" width="7" height="2" fill="white"/>
<rect x="11" y="5" width="2" height="8" fill="white"/>
<rect x="11" y="5" width="2" height="2" fill="white"/>
<rect x="5" y="11" width="2" height="2" fill="white"/>
</g>
<defs>
<clipPath id="clip0_136_34">
<rect width="18" height="18" fill="white"/>
</clipPath>
</defs>
</svg>
